<mxfile host="app.diagrams.net" modified="2023-04-01T11:46:53.676Z" agent="5.0 (Windows NT 10.0; Win64; x64) AppleWebKit/537.36 (KHTML, like Gecko) Chrome/111.0.0.0 Safari/537.36 Edg/111.0.1661.54" etag="dXnMFb6gSTtyY0_8VHFq" version="21.0.7" type="github">
  <diagram id="C5RBs43oDa-KdzZeNtuy" name="Page-1">
    <mxGraphModel dx="1114" dy="608" grid="1" gridSize="10" guides="1" tooltips="1" connect="1" arrows="1" fold="1" page="1" pageScale="1" pageWidth="827" pageHeight="1169" math="0" shadow="0">
      <root>
        <mxCell id="WIyWlLk6GJQsqaUBKTNV-0" />
        <mxCell id="WIyWlLk6GJQsqaUBKTNV-1" parent="WIyWlLk6GJQsqaUBKTNV-0" />
        <mxCell id="WIyWlLk6GJQsqaUBKTNV-2" value="" style="rounded=0;html=1;jettySize=auto;orthogonalLoop=1;fontSize=11;endArrow=block;endFill=0;endSize=8;strokeWidth=1;shadow=0;labelBackgroundColor=none;edgeStyle=orthogonalEdgeStyle;" parent="WIyWlLk6GJQsqaUBKTNV-1" source="WIyWlLk6GJQsqaUBKTNV-3" target="WIyWlLk6GJQsqaUBKTNV-6" edge="1">
          <mxGeometry relative="1" as="geometry" />
        </mxCell>
        <mxCell id="WIyWlLk6GJQsqaUBKTNV-3" value="Cliente Nuevo" style="rounded=1;whiteSpace=wrap;html=1;fontSize=12;glass=0;strokeWidth=1;shadow=0;" parent="WIyWlLk6GJQsqaUBKTNV-1" vertex="1">
          <mxGeometry x="70" y="80" width="120" height="40" as="geometry" />
        </mxCell>
        <mxCell id="WIyWlLk6GJQsqaUBKTNV-5" value="No" style="edgeStyle=orthogonalEdgeStyle;rounded=0;html=1;jettySize=auto;orthogonalLoop=1;fontSize=11;endArrow=block;endFill=0;endSize=8;strokeWidth=1;shadow=0;labelBackgroundColor=none;" parent="WIyWlLk6GJQsqaUBKTNV-1" source="WIyWlLk6GJQsqaUBKTNV-6" target="WIyWlLk6GJQsqaUBKTNV-7" edge="1">
          <mxGeometry y="10" relative="1" as="geometry">
            <mxPoint as="offset" />
          </mxGeometry>
        </mxCell>
        <mxCell id="K9iPGLTcpqvqo5EhF58B-47" value="Yes" style="edgeStyle=orthogonalEdgeStyle;rounded=0;orthogonalLoop=1;jettySize=auto;html=1;entryX=0;entryY=0.5;entryDx=0;entryDy=0;exitX=0.5;exitY=1;exitDx=0;exitDy=0;" edge="1" parent="WIyWlLk6GJQsqaUBKTNV-1" source="WIyWlLk6GJQsqaUBKTNV-6" target="K9iPGLTcpqvqo5EhF58B-46">
          <mxGeometry relative="1" as="geometry" />
        </mxCell>
        <mxCell id="WIyWlLk6GJQsqaUBKTNV-6" value="Completo Registro.?" style="rhombus;whiteSpace=wrap;html=1;shadow=0;fontFamily=Helvetica;fontSize=12;align=center;strokeWidth=1;spacing=6;spacingTop=-4;" parent="WIyWlLk6GJQsqaUBKTNV-1" vertex="1">
          <mxGeometry x="80" y="190" width="100" height="80" as="geometry" />
        </mxCell>
        <mxCell id="WIyWlLk6GJQsqaUBKTNV-7" value="Termina Flujo" style="rounded=1;whiteSpace=wrap;html=1;fontSize=12;glass=0;strokeWidth=1;shadow=0;" parent="WIyWlLk6GJQsqaUBKTNV-1" vertex="1">
          <mxGeometry x="240" y="210" width="120" height="40" as="geometry" />
        </mxCell>
        <mxCell id="WIyWlLk6GJQsqaUBKTNV-12" value="Se crea suscripción vacia" style="rounded=1;whiteSpace=wrap;html=1;fontSize=12;glass=0;strokeWidth=1;shadow=0;" parent="WIyWlLk6GJQsqaUBKTNV-1" vertex="1">
          <mxGeometry x="65" y="430" width="120" height="40" as="geometry" />
        </mxCell>
        <mxCell id="K9iPGLTcpqvqo5EhF58B-3" value="" style="rounded=0;html=1;jettySize=auto;orthogonalLoop=1;fontSize=11;endArrow=block;endFill=0;endSize=8;strokeWidth=1;shadow=0;labelBackgroundColor=none;edgeStyle=orthogonalEdgeStyle;" edge="1" parent="WIyWlLk6GJQsqaUBKTNV-1" source="K9iPGLTcpqvqo5EhF58B-4" target="K9iPGLTcpqvqo5EhF58B-7">
          <mxGeometry relative="1" as="geometry" />
        </mxCell>
        <mxCell id="K9iPGLTcpqvqo5EhF58B-4" value="Cliente Registrado" style="rounded=1;whiteSpace=wrap;html=1;fontSize=12;glass=0;strokeWidth=1;shadow=0;" vertex="1" parent="WIyWlLk6GJQsqaUBKTNV-1">
          <mxGeometry x="780" y="90" width="120" height="40" as="geometry" />
        </mxCell>
        <mxCell id="K9iPGLTcpqvqo5EhF58B-6" value="No" style="edgeStyle=orthogonalEdgeStyle;rounded=0;html=1;jettySize=auto;orthogonalLoop=1;fontSize=11;endArrow=block;endFill=0;endSize=8;strokeWidth=1;shadow=0;labelBackgroundColor=none;" edge="1" parent="WIyWlLk6GJQsqaUBKTNV-1" source="K9iPGLTcpqvqo5EhF58B-7" target="K9iPGLTcpqvqo5EhF58B-8">
          <mxGeometry y="10" relative="1" as="geometry">
            <mxPoint as="offset" />
          </mxGeometry>
        </mxCell>
        <mxCell id="K9iPGLTcpqvqo5EhF58B-51" style="edgeStyle=orthogonalEdgeStyle;rounded=0;orthogonalLoop=1;jettySize=auto;html=1;exitX=0.5;exitY=1;exitDx=0;exitDy=0;" edge="1" parent="WIyWlLk6GJQsqaUBKTNV-1" source="K9iPGLTcpqvqo5EhF58B-7" target="K9iPGLTcpqvqo5EhF58B-50">
          <mxGeometry relative="1" as="geometry" />
        </mxCell>
        <mxCell id="K9iPGLTcpqvqo5EhF58B-7" value="Completa 1 Factura.?" style="rhombus;whiteSpace=wrap;html=1;shadow=0;fontFamily=Helvetica;fontSize=12;align=center;strokeWidth=1;spacing=6;spacingTop=-4;" vertex="1" parent="WIyWlLk6GJQsqaUBKTNV-1">
          <mxGeometry x="790" y="200" width="100" height="80" as="geometry" />
        </mxCell>
        <mxCell id="K9iPGLTcpqvqo5EhF58B-8" value="Suscripción Vacía" style="rounded=1;whiteSpace=wrap;html=1;fontSize=12;glass=0;strokeWidth=1;shadow=0;" vertex="1" parent="WIyWlLk6GJQsqaUBKTNV-1">
          <mxGeometry x="970" y="220" width="120" height="40" as="geometry" />
        </mxCell>
        <mxCell id="K9iPGLTcpqvqo5EhF58B-9" value="Se actualiza suscripción a gratis por 30 días" style="rounded=1;whiteSpace=wrap;html=1;fontSize=12;glass=0;strokeWidth=1;shadow=0;" vertex="1" parent="WIyWlLk6GJQsqaUBKTNV-1">
          <mxGeometry x="780" y="420" width="120" height="60" as="geometry" />
        </mxCell>
        <mxCell id="K9iPGLTcpqvqo5EhF58B-12" style="edgeStyle=orthogonalEdgeStyle;rounded=0;orthogonalLoop=1;jettySize=auto;html=1;entryX=0.5;entryY=0;entryDx=0;entryDy=0;" edge="1" parent="WIyWlLk6GJQsqaUBKTNV-1" source="K9iPGLTcpqvqo5EhF58B-10" target="K9iPGLTcpqvqo5EhF58B-19">
          <mxGeometry relative="1" as="geometry" />
        </mxCell>
        <mxCell id="K9iPGLTcpqvqo5EhF58B-10" value="Cliente Registrado" style="rounded=1;whiteSpace=wrap;html=1;fontSize=12;glass=0;strokeWidth=1;shadow=0;" vertex="1" parent="WIyWlLk6GJQsqaUBKTNV-1">
          <mxGeometry x="70" y="560" width="110" height="40" as="geometry" />
        </mxCell>
        <mxCell id="K9iPGLTcpqvqo5EhF58B-14" value="" style="edgeStyle=orthogonalEdgeStyle;rounded=0;orthogonalLoop=1;jettySize=auto;html=1;" edge="1" parent="WIyWlLk6GJQsqaUBKTNV-1" source="K9iPGLTcpqvqo5EhF58B-11" target="K9iPGLTcpqvqo5EhF58B-13">
          <mxGeometry relative="1" as="geometry" />
        </mxCell>
        <mxCell id="K9iPGLTcpqvqo5EhF58B-15" value="Yes" style="edgeLabel;html=1;align=center;verticalAlign=middle;resizable=0;points=[];" vertex="1" connectable="0" parent="K9iPGLTcpqvqo5EhF58B-14">
          <mxGeometry x="0.15" y="-3" relative="1" as="geometry">
            <mxPoint as="offset" />
          </mxGeometry>
        </mxCell>
        <mxCell id="K9iPGLTcpqvqo5EhF58B-18" value="" style="edgeStyle=orthogonalEdgeStyle;rounded=0;orthogonalLoop=1;jettySize=auto;html=1;" edge="1" parent="WIyWlLk6GJQsqaUBKTNV-1" source="K9iPGLTcpqvqo5EhF58B-11" target="K9iPGLTcpqvqo5EhF58B-17">
          <mxGeometry relative="1" as="geometry" />
        </mxCell>
        <mxCell id="K9iPGLTcpqvqo5EhF58B-11" value="Compra Plan Familiar" style="rhombus;whiteSpace=wrap;html=1;" vertex="1" parent="WIyWlLk6GJQsqaUBKTNV-1">
          <mxGeometry x="65" y="860" width="110" height="100" as="geometry" />
        </mxCell>
        <mxCell id="K9iPGLTcpqvqo5EhF58B-26" value="" style="edgeStyle=orthogonalEdgeStyle;rounded=0;orthogonalLoop=1;jettySize=auto;html=1;" edge="1" parent="WIyWlLk6GJQsqaUBKTNV-1" source="K9iPGLTcpqvqo5EhF58B-13" target="K9iPGLTcpqvqo5EhF58B-25">
          <mxGeometry relative="1" as="geometry" />
        </mxCell>
        <mxCell id="K9iPGLTcpqvqo5EhF58B-13" value="Se Actualiza Plan con fecha de vigencia 1 mes" style="whiteSpace=wrap;html=1;" vertex="1" parent="WIyWlLk6GJQsqaUBKTNV-1">
          <mxGeometry x="248" y="880" width="120" height="60" as="geometry" />
        </mxCell>
        <mxCell id="K9iPGLTcpqvqo5EhF58B-17" value="Mantiene Suscripción Gratis" style="whiteSpace=wrap;html=1;" vertex="1" parent="WIyWlLk6GJQsqaUBKTNV-1">
          <mxGeometry x="60" y="1040" width="120" height="60" as="geometry" />
        </mxCell>
        <mxCell id="K9iPGLTcpqvqo5EhF58B-67" value="No" style="edgeStyle=orthogonalEdgeStyle;rounded=0;orthogonalLoop=1;jettySize=auto;html=1;exitX=0.5;exitY=1;exitDx=0;exitDy=0;" edge="1" parent="WIyWlLk6GJQsqaUBKTNV-1" source="K9iPGLTcpqvqo5EhF58B-19" target="K9iPGLTcpqvqo5EhF58B-66">
          <mxGeometry relative="1" as="geometry">
            <mxPoint x="170" y="695" as="sourcePoint" />
          </mxGeometry>
        </mxCell>
        <mxCell id="K9iPGLTcpqvqo5EhF58B-70" value="Yes" style="edgeStyle=orthogonalEdgeStyle;rounded=0;orthogonalLoop=1;jettySize=auto;html=1;" edge="1" parent="WIyWlLk6GJQsqaUBKTNV-1" source="K9iPGLTcpqvqo5EhF58B-19" target="K9iPGLTcpqvqo5EhF58B-69">
          <mxGeometry relative="1" as="geometry" />
        </mxCell>
        <mxCell id="K9iPGLTcpqvqo5EhF58B-19" value="&amp;nbsp;Tiene una suscripción" style="rhombus;whiteSpace=wrap;html=1;" vertex="1" parent="WIyWlLk6GJQsqaUBKTNV-1">
          <mxGeometry x="75" y="630" width="100" height="90" as="geometry" />
        </mxCell>
        <mxCell id="K9iPGLTcpqvqo5EhF58B-22" value="" style="edgeStyle=orthogonalEdgeStyle;rounded=0;orthogonalLoop=1;jettySize=auto;html=1;exitX=0.5;exitY=1;exitDx=0;exitDy=0;entryX=0.5;entryY=0;entryDx=0;entryDy=0;" edge="1" parent="WIyWlLk6GJQsqaUBKTNV-1" source="K9iPGLTcpqvqo5EhF58B-66" target="K9iPGLTcpqvqo5EhF58B-11">
          <mxGeometry relative="1" as="geometry">
            <mxPoint x="185" y="930" as="sourcePoint" />
            <mxPoint x="285" y="900" as="targetPoint" />
            <Array as="points">
              <mxPoint x="308" y="810" />
              <mxPoint x="120" y="810" />
            </Array>
          </mxGeometry>
        </mxCell>
        <mxCell id="K9iPGLTcpqvqo5EhF58B-24" value="No" style="edgeLabel;html=1;align=center;verticalAlign=middle;resizable=0;points=[];" vertex="1" connectable="0" parent="WIyWlLk6GJQsqaUBKTNV-1">
          <mxGeometry x="248" y="923" as="geometry">
            <mxPoint x="-130" y="72" as="offset" />
          </mxGeometry>
        </mxCell>
        <mxCell id="K9iPGLTcpqvqo5EhF58B-25" value="Crea Beneficiarios 1,2 o 3" style="whiteSpace=wrap;html=1;" vertex="1" parent="WIyWlLk6GJQsqaUBKTNV-1">
          <mxGeometry x="248" y="980" width="120" height="60" as="geometry" />
        </mxCell>
        <mxCell id="K9iPGLTcpqvqo5EhF58B-29" style="edgeStyle=orthogonalEdgeStyle;rounded=0;orthogonalLoop=1;jettySize=auto;html=1;entryX=0.5;entryY=0;entryDx=0;entryDy=0;" edge="1" parent="WIyWlLk6GJQsqaUBKTNV-1" source="K9iPGLTcpqvqo5EhF58B-27" target="K9iPGLTcpqvqo5EhF58B-28">
          <mxGeometry relative="1" as="geometry" />
        </mxCell>
        <mxCell id="K9iPGLTcpqvqo5EhF58B-27" value="Beneficiario Registrado Movil" style="rounded=1;whiteSpace=wrap;html=1;fontSize=12;glass=0;strokeWidth=1;shadow=0;" vertex="1" parent="WIyWlLk6GJQsqaUBKTNV-1">
          <mxGeometry x="685" y="585" width="110" height="40" as="geometry" />
        </mxCell>
        <mxCell id="K9iPGLTcpqvqo5EhF58B-32" value="No" style="edgeStyle=orthogonalEdgeStyle;rounded=0;orthogonalLoop=1;jettySize=auto;html=1;entryX=1;entryY=0.5;entryDx=0;entryDy=0;" edge="1" parent="WIyWlLk6GJQsqaUBKTNV-1" source="K9iPGLTcpqvqo5EhF58B-28" target="K9iPGLTcpqvqo5EhF58B-61">
          <mxGeometry relative="1" as="geometry">
            <mxPoint x="620" y="727.5" as="targetPoint" />
            <mxPoint as="offset" />
          </mxGeometry>
        </mxCell>
        <mxCell id="K9iPGLTcpqvqo5EhF58B-63" value="" style="edgeStyle=orthogonalEdgeStyle;rounded=0;orthogonalLoop=1;jettySize=auto;html=1;" edge="1" parent="WIyWlLk6GJQsqaUBKTNV-1" source="K9iPGLTcpqvqo5EhF58B-28" target="K9iPGLTcpqvqo5EhF58B-62">
          <mxGeometry relative="1" as="geometry" />
        </mxCell>
        <mxCell id="K9iPGLTcpqvqo5EhF58B-28" value="&amp;nbsp;Tiene una suscripción" style="rhombus;whiteSpace=wrap;html=1;" vertex="1" parent="WIyWlLk6GJQsqaUBKTNV-1">
          <mxGeometry x="680" y="680" width="120" height="95" as="geometry" />
        </mxCell>
        <mxCell id="K9iPGLTcpqvqo5EhF58B-48" style="edgeStyle=orthogonalEdgeStyle;rounded=0;orthogonalLoop=1;jettySize=auto;html=1;exitX=0.5;exitY=1;exitDx=0;exitDy=0;" edge="1" parent="WIyWlLk6GJQsqaUBKTNV-1" source="K9iPGLTcpqvqo5EhF58B-46" target="WIyWlLk6GJQsqaUBKTNV-12">
          <mxGeometry relative="1" as="geometry" />
        </mxCell>
        <mxCell id="K9iPGLTcpqvqo5EhF58B-53" value="No" style="edgeLabel;html=1;align=center;verticalAlign=middle;resizable=0;points=[];" vertex="1" connectable="0" parent="K9iPGLTcpqvqo5EhF58B-48">
          <mxGeometry x="-0.0686" y="-2" relative="1" as="geometry">
            <mxPoint as="offset" />
          </mxGeometry>
        </mxCell>
        <mxCell id="K9iPGLTcpqvqo5EhF58B-55" value="Yes" style="edgeStyle=orthogonalEdgeStyle;rounded=0;orthogonalLoop=1;jettySize=auto;html=1;exitX=1;exitY=0.5;exitDx=0;exitDy=0;" edge="1" parent="WIyWlLk6GJQsqaUBKTNV-1" source="K9iPGLTcpqvqo5EhF58B-46">
          <mxGeometry relative="1" as="geometry">
            <mxPoint x="440" y="420" as="targetPoint" />
          </mxGeometry>
        </mxCell>
        <mxCell id="K9iPGLTcpqvqo5EhF58B-46" value="Es beneficiario API Indetity POST" style="rhombus;whiteSpace=wrap;html=1;fontSize=10;" vertex="1" parent="WIyWlLk6GJQsqaUBKTNV-1">
          <mxGeometry x="314" y="270" width="100" height="90" as="geometry" />
        </mxCell>
        <mxCell id="K9iPGLTcpqvqo5EhF58B-52" value="No" style="edgeStyle=orthogonalEdgeStyle;rounded=0;orthogonalLoop=1;jettySize=auto;html=1;entryX=0.5;entryY=0;entryDx=0;entryDy=0;exitX=0.5;exitY=1;exitDx=0;exitDy=0;" edge="1" parent="WIyWlLk6GJQsqaUBKTNV-1" source="K9iPGLTcpqvqo5EhF58B-50" target="K9iPGLTcpqvqo5EhF58B-9">
          <mxGeometry relative="1" as="geometry" />
        </mxCell>
        <mxCell id="K9iPGLTcpqvqo5EhF58B-58" value="Yes" style="edgeStyle=orthogonalEdgeStyle;rounded=0;orthogonalLoop=1;jettySize=auto;html=1;entryX=0.5;entryY=0;entryDx=0;entryDy=0;exitX=0;exitY=0.5;exitDx=0;exitDy=0;" edge="1" parent="WIyWlLk6GJQsqaUBKTNV-1" source="K9iPGLTcpqvqo5EhF58B-50" target="K9iPGLTcpqvqo5EhF58B-57">
          <mxGeometry relative="1" as="geometry">
            <mxPoint x="640" y="390" as="targetPoint" />
          </mxGeometry>
        </mxCell>
        <mxCell id="K9iPGLTcpqvqo5EhF58B-50" value="Es beneficiario API Indetity UPDATE" style="rhombus;whiteSpace=wrap;html=1;fontSize=10;" vertex="1" parent="WIyWlLk6GJQsqaUBKTNV-1">
          <mxGeometry x="660" y="270" width="100" height="90" as="geometry" />
        </mxCell>
        <mxCell id="K9iPGLTcpqvqo5EhF58B-54" value="Crea suscripcion individual con datos de dueño de beneficiarios" style="rounded=1;whiteSpace=wrap;html=1;fontSize=12;glass=0;strokeWidth=1;shadow=0;" vertex="1" parent="WIyWlLk6GJQsqaUBKTNV-1">
          <mxGeometry x="360" y="420" width="140" height="60" as="geometry" />
        </mxCell>
        <mxCell id="K9iPGLTcpqvqo5EhF58B-57" value="Actualiza suscripción individual con datos de dueño de beneficiarios" style="rounded=1;whiteSpace=wrap;html=1;fontSize=12;glass=0;strokeWidth=1;shadow=0;" vertex="1" parent="WIyWlLk6GJQsqaUBKTNV-1">
          <mxGeometry x="570" y="420" width="140" height="60" as="geometry" />
        </mxCell>
        <mxCell id="K9iPGLTcpqvqo5EhF58B-61" value="Crea suscripcion individual con datos de dueño de beneficiarios" style="rounded=1;whiteSpace=wrap;html=1;fontSize=12;glass=0;strokeWidth=1;shadow=0;" vertex="1" parent="WIyWlLk6GJQsqaUBKTNV-1">
          <mxGeometry x="470" y="697.5" width="140" height="60" as="geometry" />
        </mxCell>
        <mxCell id="K9iPGLTcpqvqo5EhF58B-65" value="" style="edgeStyle=orthogonalEdgeStyle;rounded=0;orthogonalLoop=1;jettySize=auto;html=1;" edge="1" parent="WIyWlLk6GJQsqaUBKTNV-1" source="K9iPGLTcpqvqo5EhF58B-62" target="K9iPGLTcpqvqo5EhF58B-64">
          <mxGeometry relative="1" as="geometry" />
        </mxCell>
        <mxCell id="K9iPGLTcpqvqo5EhF58B-62" value="Despliega información plan individual" style="whiteSpace=wrap;html=1;" vertex="1" parent="WIyWlLk6GJQsqaUBKTNV-1">
          <mxGeometry x="680" y="872.5" width="120" height="60" as="geometry" />
        </mxCell>
        <mxCell id="K9iPGLTcpqvqo5EhF58B-64" value="End" style="ellipse;whiteSpace=wrap;html=1;" vertex="1" parent="WIyWlLk6GJQsqaUBKTNV-1">
          <mxGeometry x="720" y="1007.5" width="40" height="42.5" as="geometry" />
        </mxCell>
        <mxCell id="K9iPGLTcpqvqo5EhF58B-66" value="Presenta Planes Disponibles" style="whiteSpace=wrap;html=1;" vertex="1" parent="WIyWlLk6GJQsqaUBKTNV-1">
          <mxGeometry x="248" y="720" width="120" height="60" as="geometry" />
        </mxCell>
        <mxCell id="K9iPGLTcpqvqo5EhF58B-69" value="Presenta Plan Activo" style="whiteSpace=wrap;html=1;" vertex="1" parent="WIyWlLk6GJQsqaUBKTNV-1">
          <mxGeometry x="248" y="645" width="120" height="60" as="geometry" />
        </mxCell>
      </root>
    </mxGraphModel>
  </diagram>
</mxfile>
